# xmcd CD database file
#
# Track frame offsets:
#	150
#	15620
#	29348
#	42427
#	57146
#	70636
#	82989
#	98060
#	111283
#	125655
#	140445
#	155186
#	164596
#	174144
#	189964
#	206430
#
# Disc length: 2952 seconds
#
# Revision: 1
# Processed by: cddbd v1.5.1PL0 Copyright (c) Steve Scherf et al.
# Submitted via: CDex 1.50
#
DISCID=d20b8610
DTITLE=Muddy Waters - Quadromania
DYEAR=2005
DGENRE=Blues
TTITLE0=Country Blues
TTITLE1=I Be´s Troubled
TTITLE2=Burr Clover Farm Blues
TTITLE3=Ramblin´ Kid Blues
TTITLE4=Rosalie
TTITLE5=Joe Turner Blues
TTITLE6=Pearlie May Blues
TTITLE7=Take A Walk With Me
TTITLE8=Burr Clover Farm Blues
TTITLE9=I Be Bound To Write To You
TTITLE10=You´re Gonna Miss Me When I´m Gone
TTITLE11=You Got To Take Sick And Die Some Of These Days
TTITLE12=Why Don´t You Live So God Can Use You
TTITLE13=Country Blues
TTITLE14=You´re Gonna Miss Me When I´m Gone
TTITLE15=32-20 Blues
EXTD=YEAR: 2005
EXTT0=
EXTT1=
EXTT2=
EXTT3=
EXTT4=
EXTT5=
EXTT6=
EXTT7=
EXTT8=
EXTT9=
EXTT10=
EXTT11=
EXTT12=
EXTT13=
EXTT14=
EXTT15=
PLAYORDER=
